Coordinates
version=1
nRows=8
nColumns=40
inDegrees=yes

Units are S.I. units (second, meters, Newtons, ...)
Angles are in degrees.

endheader
time	pelvis_tilt	pelvis_list	pelvis_rotation	pelvis_tx	pelvis_ty	pelvis_tz	hip_flexion_r	hip_adduction_r	hip_rotation_r	knee_angle_r	knee_angle_r_beta	ankle_angle_r	subtalar_angle_r	mtp_angle_r	hip_flexion_l	hip_adduction_l	hip_rotation_l	knee_angle_l	knee_angle_l_beta	ankle_angle_l	subtalar_angle_l	mtp_angle_l	lumbar_extension	lumbar_bending	lumbar_rotation	arm_flex_r	arm_add_r	arm_rot_r	elbow_flex_r	pro_sup_r	wrist_flex_r	wrist_dev_r	arm_flex_l	arm_add_l	arm_rot_l	elbow_flex_l	pro_sup_l	wrist_flex_l	wrist_dev_l
      2.32000000	      0.17276674	     -5.52084430	     -6.06367149	      0.67970772	      0.89089336	      1.47465325	     -9.38905832	      5.67515202	    -14.77756518	    -20.52516520	     -0.35823171	      7.80417095	     12.96693906	     -7.43165498	     22.59436649	      4.88750458	     19.55176197	    -11.70099919	     -0.20422096	      0.93186857	      1.39814885	    -10.84943705	     -8.04761600	      7.89822308	     10.12182880	     18.64411524	    -14.54995413	     16.93771093	     25.65735352	     89.95437384	      0.00000000	      0.00000000	     -5.66991046	      6.59400597	     -8.02302972	     11.99025599	     89.95437384	      0.00000000	      0.00000000
      2.33000000	      0.07347145	     -5.33561885	     -6.63874896	      0.69040078	      0.89002455	      1.47508290	     -9.65605004	      5.23571434	    -13.92150910	    -21.11801047	     -0.36857881	      7.40148371	     12.99828192	     -7.41408800	     22.47878792	      4.65337391	     19.29062270	    -12.13870947	     -0.21186045	      1.01949036	      1.59128192	    -10.71276756	     -7.92590422	      7.63391988	     10.43035500	     18.74494772	    -14.36017504	     16.89680423	     25.55703499	     89.95437384	      0.00000000	      0.00000000	     -5.76270842	      6.50402732	     -8.09499465	     11.21334088	     89.95437384	      0.00000000	      0.00000000
      2.34000000	     -0.15337105	     -5.26013118	     -6.90388607	      0.70216998	      0.88884240	      1.47514387	     -9.85500837	      4.93383065	    -13.58841868	    -21.73613037	     -0.37936704	      7.08811616	     12.51113423	     -7.25169704	     22.43896309	      4.46092101	     18.74427499	    -12.85442370	     -0.22435202	      0.72920313	      1.57272796	    -10.44172419	     -7.51332127	      7.55335128	     10.35988554	     18.41198590	    -14.26031899	     16.81002744	     25.96448206	     89.95437384	      0.00000000	      0.00000000	     -6.35365760	      6.63308265	     -8.03614645	     11.39638741	     89.95437384	      0.00000000	      0.00000000
      2.35000000	     -0.07022022	     -4.63930825	     -7.37388413	      0.71330044	      0.88823293	      1.47521709	    -10.00692333	      3.77027714	    -13.43383700	    -22.84471614	     -0.39871551	      6.44854341	     13.42326773	     -8.35432311	     22.11404789	      3.57544748	     17.64493538	    -13.48886839	     -0.23542517	     -1.76006338	      4.34064586	    -10.69254064	     -7.47517938	      6.77277195	     10.72775618	     18.11390691	    -14.04593588	     16.06401365	     26.05273472	     89.95437384	      0.00000000	      0.00000000	     -6.43037816	      6.91937386	    -10.98687260	     10.93975990	     89.95437384	      0.00000000	      0.00000000
      2.36000000	     -0.13909165	     -4.35138624	     -7.47809213	      0.72487112	      0.88771848	      1.47498544	    -10.16846550	      3.25412164	    -12.87358812	    -23.63589985	     -0.41252427	      5.68757964	     12.99852287	     -8.17787033	     22.07438990	      3.18934804	     16.84559255	    -14.33936725	     -0.25026917	     -3.36737490	      4.48389838	    -10.32429792	     -7.22568364	      6.42354433	     10.58724614	     17.81822532	    -13.86358100	     15.96932904	     26.00967134	     89.95437384	      0.00000000	      0.00000000	     -6.53846665	      6.97010745	    -11.08189396	     10.55503483	     89.95437384	      0.00000000	      0.00000000
      2.37000000	     -0.18289307	     -3.55278479	     -7.53346676	      0.73642069	      0.88750524	      1.47420538	     -9.92544882	      1.93609321	    -13.06863372	    -25.10628346	     -0.43818731	      4.75298851	     13.27941817	     -8.79963032	     21.81565280	      1.99320940	     15.07074677	    -14.58936672	     -0.25463249	     -4.51119037	      7.06285959	    -11.65993818	     -6.93189283	      5.53170238	     10.41162971	     17.37550821	    -13.54358096	     15.12647464	     25.95596520	     89.95437384	      0.00000000	      0.00000000	     -6.64452532	      7.15685087	    -11.86669491	     10.42011046	     89.95437384	      0.00000000	      0.00000000
      2.38000000	     -0.14838546	     -3.10101812	     -7.61574112	      0.74827065	      0.88775710	      1.47407084	     -9.84114938	      1.19454619	    -12.63469663	    -26.42510371	     -0.46120506	      3.42395292	     12.50694207	     -8.45174922	     21.65135953	      1.55141891	     14.90424786	    -15.62464351	     -0.27270147	     -4.17583522	      7.14608617	    -11.39053567	     -6.74568308	      4.97445273	     10.22980339	     16.96208731	    -13.25608027	     14.93617733	     25.73475353	     89.95437384	      0.00000000	      0.00000000	     -6.66191325	      7.25984748	    -12.05894161	     10.12255836	     89.95437384	      0.00000000	      0.00000000
      2.39000000	     -0.10106310	     -2.51864405	     -7.73016677	      0.76036243	      0.88833564	      1.47387915	     -9.53846737	      0.22112971	    -12.35053647	    -28.06750748	     -0.48987042	      1.62144688	     11.80786912	     -8.04601844	     21.30735101	      0.95736175	     14.95955749	    -16.52505848	     -0.28841668	     -3.02594073	      7.55924347	    -11.13514241	     -6.50593593	      4.28321185	     10.08560967	     16.45663394	    -12.91394915	     14.56271697	     25.40645522	     89.95437384	      0.00000000	      0.00000000	     -6.64837334	      7.37945617	    -12.39680529	      9.87210156	     89.95437384	      0.00000000	      0.00000000
